<svg class="rich-terminal" viewBox="0 0 1360 830.8" xmlns="http://www.w3.org/2000/svg">
    <!-- Generated with Rich https://www.textualize.io -->
    <style>

    @font-face {
        font-family: "Fira Code";
        src: local("FiraCode-Regular"),
                url("https://cdnjs.cloudflare.com/ajax/libs/firacode/6.2.0/woff2/FiraCode-Regular.woff2") format("woff2"),
                url("https://cdnjs.cloudflare.com/ajax/libs/firacode/6.2.0/woff/FiraCode-Regular.woff") format("woff");
        font-style: normal;
        font-weight: 400;
    }
    @font-face {
        font-family: "Fira Code";
        src: local("FiraCode-Bold"),
                url("https://cdnjs.cloudflare.com/ajax/libs/firacode/6.2.0/woff2/FiraCode-Bold.woff2") format("woff2"),
                url("https://cdnjs.cloudflare.com/ajax/libs/firacode/6.2.0/woff/FiraCode-Bold.woff") format("woff");
        font-style: bold;
        font-weight: 700;
    }

    .terminal-2382349025-matrix {
        font-family: Fira Code, monospace;
        font-size: 20px;
        line-height: 24.4px;
        font-variant-east-asian: full-width;
    }

    .terminal-2382349025-title {
        font-size: 18px;
        font-weight: bold;
        font-family: arial;
    }

    .terminal-2382349025-r1 { fill: #c5c8c6 }
.terminal-2382349025-r2 { fill: #e5e7eb;font-weight: bold }
.terminal-2382349025-r3 { fill: #9ca0a8;font-weight: bold }
.terminal-2382349025-r4 { fill: #1f2937 }
.terminal-2382349025-r5 { fill: #3a7bd5;font-weight: bold }
.terminal-2382349025-r6 { fill: #9ca3af }
.terminal-2382349025-r7 { fill: #9ca3af;font-weight: bold }
.terminal-2382349025-r8 { fill: #6c7380 }
.terminal-2382349025-r9 { fill: #e5e7eb }
.terminal-2382349025-r10 { fill: #6b7280 }
.terminal-2382349025-r11 { fill: #ffffff;font-weight: bold }
.terminal-2382349025-r12 { fill: #ffa62b;font-weight: bold }
.terminal-2382349025-r13 { fill: #e0e0e0 }
.terminal-2382349025-r14 { fill: #3a404c }
    </style>

    <defs>
    <clipPath id="terminal-2382349025-clip-terminal">
      <rect x="0" y="0" width="1341.0" height="779.8" />
    </clipPath>
    <clipPath id="terminal-2382349025-line-0">
    <rect x="0" y="1.5" width="1342" height="24.65"/>
            </clipPath>
<clipPath id="terminal-2382349025-line-1">
    <rect x="0" y="25.9" width="1342" height="24.65"/>
            </clipPath>
<clipPath id="terminal-2382349025-line-2">
    <rect x="0" y="50.3" width="1342" height="24.65"/>
            </clipPath>
<clipPath id="terminal-2382349025-line-3">
    <rect x="0" y="74.7" width="1342" height="24.65"/>
            </clipPath>
<clipPath id="terminal-2382349025-line-4">
    <rect x="0" y="99.1" width="1342" height="24.65"/>
            </clipPath>
<clipPath id="terminal-2382349025-line-5">
    <rect x="0" y="123.5" width="1342" height="24.65"/>
            </clipPath>
<clipPath id="terminal-2382349025-line-6">
    <rect x="0" y="147.9" width="1342" height="24.65"/>
            </clipPath>
<clipPath id="terminal-2382349025-line-7">
    <rect x="0" y="172.3" width="1342" height="24.65"/>
            </clipPath>
<clipPath id="terminal-2382349025-line-8">
    <rect x="0" y="196.7" width="1342" height="24.65"/>
            </clipPath>
<clipPath id="terminal-2382349025-line-9">
    <rect x="0" y="221.1" width="1342" height="24.65"/>
            </clipPath>
<clipPath id="terminal-2382349025-line-10">
    <rect x="0" y="245.5" width="1342" height="24.65"/>
            </clipPath>
<clipPath id="terminal-2382349025-line-11">
    <rect x="0" y="269.9" width="1342" height="24.65"/>
            </clipPath>
<clipPath id="terminal-2382349025-line-12">
    <rect x="0" y="294.3" width="1342" height="24.65"/>
            </clipPath>
<clipPath id="terminal-2382349025-line-13">
    <rect x="0" y="318.7" width="1342" height="24.65"/>
            </clipPath>
<clipPath id="terminal-2382349025-line-14">
    <rect x="0" y="343.1" width="1342" height="24.65"/>
            </clipPath>
<clipPath id="terminal-2382349025-line-15">
    <rect x="0" y="367.5" width="1342" height="24.65"/>
            </clipPath>
<clipPath id="terminal-2382349025-line-16">
    <rect x="0" y="391.9" width="1342" height="24.65"/>
            </clipPath>
<clipPath id="terminal-2382349025-line-17">
    <rect x="0" y="416.3" width="1342" height="24.65"/>
            </clipPath>
<clipPath id="terminal-2382349025-line-18">
    <rect x="0" y="440.7" width="1342" height="24.65"/>
            </clipPath>
<clipPath id="terminal-2382349025-line-19">
    <rect x="0" y="465.1" width="1342" height="24.65"/>
            </clipPath>
<clipPath id="terminal-2382349025-line-20">
    <rect x="0" y="489.5" width="1342" height="24.65"/>
            </clipPath>
<clipPath id="terminal-2382349025-line-21">
    <rect x="0" y="513.9" width="1342" height="24.65"/>
            </clipPath>
<clipPath id="terminal-2382349025-line-22">
    <rect x="0" y="538.3" width="1342" height="24.65"/>
            </clipPath>
<clipPath id="terminal-2382349025-line-23">
    <rect x="0" y="562.7" width="1342" height="24.65"/>
            </clipPath>
<clipPath id="terminal-2382349025-line-24">
    <rect x="0" y="587.1" width="1342" height="24.65"/>
            </clipPath>
<clipPath id="terminal-2382349025-line-25">
    <rect x="0" y="611.5" width="1342" height="24.65"/>
            </clipPath>
<clipPath id="terminal-2382349025-line-26">
    <rect x="0" y="635.9" width="1342" height="24.65"/>
            </clipPath>
<clipPath id="terminal-2382349025-line-27">
    <rect x="0" y="660.3" width="1342" height="24.65"/>
            </clipPath>
<clipPath id="terminal-2382349025-line-28">
    <rect x="0" y="684.7" width="1342" height="24.65"/>
            </clipPath>
<clipPath id="terminal-2382349025-line-29">
    <rect x="0" y="709.1" width="1342" height="24.65"/>
            </clipPath>
<clipPath id="terminal-2382349025-line-30">
    <rect x="0" y="733.5" width="1342" height="24.65"/>
            </clipPath>
    </defs>

    <rect fill="#292929" stroke="rgba(255,255,255,0.35)" stroke-width="1" x="1" y="1" width="1358" height="828.8" rx="8"/><text class="terminal-2382349025-title" fill="#c5c8c6" text-anchor="middle" x="679" y="27">jaull</text>
            <g transform="translate(26,22)">
            <circle cx="0" cy="0" r="7" fill="#ff5f57"/>
            <circle cx="22" cy="0" r="7" fill="#febc2e"/>
            <circle cx="44" cy="0" r="7" fill="#28c840"/>
            </g>
        
    <g transform="translate(9, 41)" clip-path="url(#terminal-2382349025-clip-terminal)">
    <rect fill="#111827" x="0" y="1.5" width="24.4" height="24.65" shape-rendering="crispEdges"/><rect fill="#111827" x="24.4" y="1.5" width="12.2" height="24.65" shape-rendering="crispEdges"/><rect fill="#111827" x="36.6" y="1.5" width="12.2" height="24.65" shape-rendering="crispEdges"/><rect fill="#111827" x="48.8" y="1.5" width="61" height="24.65" shape-rendering="crispEdges"/><rect fill="#111827" x="109.8" y="1.5" width="12.2" height="24.65" shape-rendering="crispEdges"/><rect fill="#111827" x="122" y="1.5" width="341.6" height="24.65" shape-rendering="crispEdges"/><rect fill="#111827" x="463.6" y="1.5" width="61" height="24.65" shape-rendering="crispEdges"/><rect fill="#111827" x="524.6" y="1.5" width="36.6" height="24.65" shape-rendering="crispEdges"/><rect fill="#111827" x="561.2" y="1.5" width="280.6" height="24.65" shape-rendering="crispEdges"/><rect fill="#111827" x="841.8" y="1.5" width="353.8" height="24.65" shape-rendering="crispEdges"/><rect fill="#111827" x="1195.6" y="1.5" width="12.2" height="24.65" shape-rendering="crispEdges"/><rect fill="#111827" x="1207.8" y="1.5" width="0" height="24.65" shape-rendering="crispEdges"/><rect fill="#111827" x="1207.8" y="1.5" width="97.6" height="24.65" shape-rendering="crispEdges"/><rect fill="#111827" x="1305.4" y="1.5" width="12.2" height="24.65" shape-rendering="crispEdges"/><rect fill="#111827" x="1317.6" y="1.5" width="24.4" height="24.65" shape-rendering="crispEdges"/><rect fill="#111827" x="0" y="25.9" width="24.4" height="24.65" shape-rendering="crispEdges"/><rect fill="#111827" x="24.4" y="25.9" width="12.2" height="24.65" shape-rendering="crispEdges"/><rect fill="#111827" x="36.6" y="25.9" width="73.2" height="24.65" shape-rendering="crispEdges"/><rect fill="#111827" x="109.8" y="25.9" width="12.2" height="24.65" shape-rendering="crispEdges"/><rect fill="#111827" x="122" y="25.9" width="1073.6" height="24.65" shape-rendering="crispEdges"/><rect fill="#111827" x="1195.6" y="25.9" width="12.2" height="24.65" shape-rendering="crispEdges"/><rect fill="#111827" x="1207.8" y="25.9" width="97.6" height="24.65" shape-rendering="crispEdges"/><rect fill="#111827" x="1305.4" y="25.9" width="12.2" height="24.65" shape-rendering="crispEdges"/><rect fill="#111827" x="1317.6" y="25.9" width="24.4" height="24.65" shape-rendering="crispEdges"/><rect fill="#111827" x="0" y="50.3" width="1342" height="24.65" shape-rendering="crispEdges"/><rect fill="#111827" x="0" y="74.7" width="12.2" height="24.65" shape-rendering="crispEdges"/><rect fill="#111827" x="12.2" y="74.7" width="1317.6" height="24.65" shape-rendering="crispEdges"/><rect fill="#111827" x="1329.8" y="74.7" width="12.2" height="24.65" shape-rendering="crispEdges"/><rect fill="#111827" x="0" y="99.1" width="12.2" height="24.65" shape-rendering="crispEdges"/><rect fill="#111827" x="12.2" y="99.1" width="1317.6" height="24.65" shape-rendering="crispEdges"/><rect fill="#111827" x="1329.8" y="99.1" width="12.2" height="24.65" shape-rendering="crispEdges"/><rect fill="#111827" x="0" y="123.5" width="12.2" height="24.65" shape-rendering="crispEdges"/><rect fill="#111827" x="12.2" y="123.5" width="24.4" height="24.65" shape-rendering="crispEdges"/><rect fill="#111827" x="36.6" y="123.5" width="256.2" height="24.65" shape-rendering="crispEdges"/><rect fill="#111827" x="292.8" y="123.5" width="1012.6" height="24.65" shape-rendering="crispEdges"/><rect fill="#111827" x="1305.4" y="123.5" width="24.4" height="24.65" shape-rendering="crispEdges"/><rect fill="#111827" x="1329.8" y="123.5" width="12.2" height="24.65" shape-rendering="crispEdges"/><rect fill="#111827" x="0" y="147.9" width="12.2" height="24.65" shape-rendering="crispEdges"/><rect fill="#111827" x="12.2" y="147.9" width="24.4" height="24.65" shape-rendering="crispEdges"/><rect fill="#111827" x="36.6" y="147.9" width="622.2" height="24.65" shape-rendering="crispEdges"/><rect fill="#111827" x="658.8" y="147.9" width="646.6" height="24.65" shape-rendering="crispEdges"/><rect fill="#111827" x="1305.4" y="147.9" width="24.4" height="24.65" shape-rendering="crispEdges"/><rect fill="#111827" x="1329.8" y="147.9" width="12.2" height="24.65" shape-rendering="crispEdges"/><rect fill="#111827" x="0" y="172.3" width="12.2" height="24.65" shape-rendering="crispEdges"/><rect fill="#111827" x="12.2" y="172.3" width="24.4" height="24.65" shape-rendering="crispEdges"/><rect fill="#111827" x="36.6" y="172.3" width="1268.8" height="24.65" shape-rendering="crispEdges"/><rect fill="#111827" x="1305.4" y="172.3" width="24.4" height="24.65" shape-rendering="crispEdges"/><rect fill="#111827" x="1329.8" y="172.3" width="12.2" height="24.65" shape-rendering="crispEdges"/><rect fill="#111827" x="0" y="196.7" width="12.2" height="24.65" shape-rendering="crispEdges"/><rect fill="#111827" x="12.2" y="196.7" width="24.4" height="24.65" shape-rendering="crispEdges"/><rect fill="#111827" x="36.6" y="196.7" width="97.6" height="24.65" shape-rendering="crispEdges"/><rect fill="#111827" x="134.2" y="196.7" width="61" height="24.65" shape-rendering="crispEdges"/><rect fill="#111827" x="195.2" y="196.7" width="122" height="24.65" shape-rendering="crispEdges"/><rect fill="#111827" x="317.2" y="196.7" width="61" height="24.65" shape-rendering="crispEdges"/><rect fill="#111827" x="378.2" y="196.7" width="73.2" height="24.65" shape-rendering="crispEdges"/><rect fill="#111827" x="451.4" y="196.7" width="61" height="24.65" shape-rendering="crispEdges"/><rect fill="#111827" x="512.4" y="196.7" width="85.4" height="24.65" shape-rendering="crispEdges"/><rect fill="#111827" x="597.8" y="196.7" width="707.6" height="24.65" shape-rendering="crispEdges"/><rect fill="#111827" x="1305.4" y="196.7" width="24.4" height="24.65" shape-rendering="crispEdges"/><rect fill="#111827" x="1329.8" y="196.7" width="12.2" height="24.65" shape-rendering="crispEdges"/><rect fill="#111827" x="0" y="221.1" width="12.2" height="24.65" shape-rendering="crispEdges"/><rect fill="#111827" x="12.2" y="221.1" width="1317.6" height="24.65" shape-rendering="crispEdges"/><rect fill="#111827" x="1329.8" y="221.1" width="12.2" height="24.65" shape-rendering="crispEdges"/><rect fill="#111827" x="0" y="245.5" width="12.2" height="24.65" shape-rendering="crispEdges"/><rect fill="#111827" x="12.2" y="245.5" width="1317.6" height="24.65" shape-rendering="crispEdges"/><rect fill="#111827" x="1329.8" y="245.5" width="12.2" height="24.65" shape-rendering="crispEdges"/><rect fill="#0e1116" x="0" y="269.9" width="1342" height="24.65" shape-rendering="crispEdges"/><rect fill="#131922" x="0" y="294.3" width="12.2" height="24.65" shape-rendering="crispEdges"/><rect fill="#131922" x="12.2" y="294.3" width="1317.6" height="24.65" shape-rendering="crispEdges"/><rect fill="#131922" x="1329.8" y="294.3" width="12.2" height="24.65" shape-rendering="crispEdges"/><rect fill="#131922" x="0" y="318.7" width="12.2" height="24.65" shape-rendering="crispEdges"/><rect fill="#131922" x="12.2" y="318.7" width="1317.6" height="24.65" shape-rendering="crispEdges"/><rect fill="#131922" x="1329.8" y="318.7" width="12.2" height="24.65" shape-rendering="crispEdges"/><rect fill="#131922" x="0" y="343.1" width="12.2" height="24.65" shape-rendering="crispEdges"/><rect fill="#131922" x="12.2" y="343.1" width="24.4" height="24.65" shape-rendering="crispEdges"/><rect fill="#131922" x="36.6" y="343.1" width="207.4" height="24.65" shape-rendering="crispEdges"/><rect fill="#131922" x="244" y="343.1" width="1061.4" height="24.65" shape-rendering="crispEdges"/><rect fill="#131922" x="1305.4" y="343.1" width="24.4" height="24.65" shape-rendering="crispEdges"/><rect fill="#131922" x="1329.8" y="343.1" width="12.2" height="24.65" shape-rendering="crispEdges"/><rect fill="#131922" x="0" y="367.5" width="12.2" height="24.65" shape-rendering="crispEdges"/><rect fill="#131922" x="12.2" y="367.5" width="24.4" height="24.65" shape-rendering="crispEdges"/><rect fill="#131922" x="36.6" y="367.5" width="1268.8" height="24.65" shape-rendering="crispEdges"/><rect fill="#131922" x="1305.4" y="367.5" width="24.4" height="24.65" shape-rendering="crispEdges"/><rect fill="#131922" x="1329.8" y="367.5" width="12.2" height="24.65" shape-rendering="crispEdges"/><rect fill="#131922" x="0" y="391.9" width="12.2" height="24.65" shape-rendering="crispEdges"/><rect fill="#131922" x="12.2" y="391.9" width="24.4" height="24.65" shape-rendering="crispEdges"/><rect fill="#131922" x="36.6" y="391.9" width="122" height="24.65" shape-rendering="crispEdges"/><rect fill="#131922" x="158.6" y="391.9" width="207.4" height="24.65" shape-rendering="crispEdges"/><rect fill="#131922" x="366" y="391.9" width="939.4" height="24.65" shape-rendering="crispEdges"/><rect fill="#131922" x="1305.4" y="391.9" width="24.4" height="24.65" shape-rendering="crispEdges"/><rect fill="#131922" x="1329.8" y="391.9" width="12.2" height="24.65" shape-rendering="crispEdges"/><rect fill="#131922" x="0" y="416.3" width="12.2" height="24.65" shape-rendering="crispEdges"/><rect fill="#131922" x="12.2" y="416.3" width="24.4" height="24.65" shape-rendering="crispEdges"/><rect fill="#131922" x="36.6" y="416.3" width="122" height="24.65" shape-rendering="crispEdges"/><rect fill="#131922" x="158.6" y="416.3" width="109.8" height="24.65" shape-rendering="crispEdges"/><rect fill="#131922" x="268.4" y="416.3" width="1037" height="24.65" shape-rendering="crispEdges"/><rect fill="#131922" x="1305.4" y="416.3" width="24.4" height="24.65" shape-rendering="crispEdges"/><rect fill="#131922" x="1329.8" y="416.3" width="12.2" height="24.65" shape-rendering="crispEdges"/><rect fill="#131922" x="0" y="440.7" width="12.2" height="24.65" shape-rendering="crispEdges"/><rect fill="#131922" x="12.2" y="440.7" width="24.4" height="24.65" shape-rendering="crispEdges"/><rect fill="#131922" x="36.6" y="440.7" width="122" height="24.65" shape-rendering="crispEdges"/><rect fill="#131922" x="158.6" y="440.7" width="195.2" height="24.65" shape-rendering="crispEdges"/><rect fill="#131922" x="353.8" y="440.7" width="951.6" height="24.65" shape-rendering="crispEdges"/><rect fill="#131922" x="1305.4" y="440.7" width="24.4" height="24.65" shape-rendering="crispEdges"/><rect fill="#131922" x="1329.8" y="440.7" width="12.2" height="24.65" shape-rendering="crispEdges"/><rect fill="#131922" x="0" y="465.1" width="12.2" height="24.65" shape-rendering="crispEdges"/><rect fill="#131922" x="12.2" y="465.1" width="24.4" height="24.65" shape-rendering="crispEdges"/><rect fill="#131922" x="36.6" y="465.1" width="122" height="24.65" shape-rendering="crispEdges"/><rect fill="#131922" x="158.6" y="465.1" width="109.8" height="24.65" shape-rendering="crispEdges"/><rect fill="#131922" x="268.4" y="465.1" width="1037" height="24.65" shape-rendering="crispEdges"/><rect fill="#131922" x="1305.4" y="465.1" width="24.4" height="24.65" shape-rendering="crispEdges"/><rect fill="#131922" x="1329.8" y="465.1" width="12.2" height="24.65" shape-rendering="crispEdges"/><rect fill="#131922" x="0" y="489.5" width="12.2" height="24.65" shape-rendering="crispEdges"/><rect fill="#131922" x="12.2" y="489.5" width="24.4" height="24.65" shape-rendering="crispEdges"/><rect fill="#131922" x="36.6" y="489.5" width="122" height="24.65" shape-rendering="crispEdges"/><rect fill="#131922" x="158.6" y="489.5" width="231.8" height="24.65" shape-rendering="crispEdges"/><rect fill="#131922" x="390.4" y="489.5" width="915" height="24.65" shape-rendering="crispEdges"/><rect fill="#131922" x="1305.4" y="489.5" width="24.4" height="24.65" shape-rendering="crispEdges"/><rect fill="#131922" x="1329.8" y="489.5" width="12.2" height="24.65" shape-rendering="crispEdges"/><rect fill="#131922" x="0" y="513.9" width="12.2" height="24.65" shape-rendering="crispEdges"/><rect fill="#131922" x="12.2" y="513.9" width="1317.6" height="24.65" shape-rendering="crispEdges"/><rect fill="#131922" x="1329.8" y="513.9" width="12.2" height="24.65" shape-rendering="crispEdges"/><rect fill="#131922" x="0" y="538.3" width="12.2" height="24.65" shape-rendering="crispEdges"/><rect fill="#131922" x="12.2" y="538.3" width="1317.6" height="24.65" shape-rendering="crispEdges"/><rect fill="#131922" x="1329.8" y="538.3" width="12.2" height="24.65" shape-rendering="crispEdges"/><rect fill="#0e1116" x="0" y="562.7" width="1342" height="24.65" shape-rendering="crispEdges"/><rect fill="#0e1116" x="0" y="587.1" width="1342" height="24.65" shape-rendering="crispEdges"/><rect fill="#0e1116" x="0" y="611.5" width="0" height="24.65" shape-rendering="crispEdges"/><rect fill="#0e1116" x="0" y="611.5" width="1342" height="24.65" shape-rendering="crispEdges"/><rect fill="#343f4f" x="0" y="635.9" width="36.6" height="24.65" shape-rendering="crispEdges"/><rect fill="#343f4f" x="36.6" y="635.9" width="122" height="24.65" shape-rendering="crispEdges"/><rect fill="#343f4f" x="158.6" y="635.9" width="36.6" height="24.65" shape-rendering="crispEdges"/><rect fill="#0e1116" x="195.2" y="635.9" width="1146.8" height="24.65" shape-rendering="crispEdges"/><rect fill="#343f4f" x="0" y="660.3" width="36.6" height="24.65" shape-rendering="crispEdges"/><rect fill="#343f4f" x="36.6" y="660.3" width="122" height="24.65" shape-rendering="crispEdges"/><rect fill="#343f4f" x="158.6" y="660.3" width="36.6" height="24.65" shape-rendering="crispEdges"/><rect fill="#0e1116" x="195.2" y="660.3" width="1146.8" height="24.65" shape-rendering="crispEdges"/><rect fill="#343f4f" x="0" y="684.7" width="36.6" height="24.65" shape-rendering="crispEdges"/><rect fill="#343f4f" x="36.6" y="684.7" width="122" height="24.65" shape-rendering="crispEdges"/><rect fill="#343f4f" x="158.6" y="684.7" width="36.6" height="24.65" shape-rendering="crispEdges"/><rect fill="#0e1116" x="195.2" y="684.7" width="1146.8" height="24.65" shape-rendering="crispEdges"/><rect fill="#0e1116" x="0" y="709.1" width="1342" height="24.65" shape-rendering="crispEdges"/><rect fill="#0e1116" x="0" y="733.5" width="1342" height="24.65" shape-rendering="crispEdges"/><rect fill="#111827" x="0" y="757.9" width="61" height="24.65" shape-rendering="crispEdges"/><rect fill="#111827" x="61" y="757.9" width="61" height="24.65" shape-rendering="crispEdges"/><rect fill="#111827" x="122" y="757.9" width="36.6" height="24.65" shape-rendering="crispEdges"/><rect fill="#111827" x="158.6" y="757.9" width="61" height="24.65" shape-rendering="crispEdges"/><rect fill="#111827" x="219.6" y="757.9" width="36.6" height="24.65" shape-rendering="crispEdges"/><rect fill="#111827" x="256.2" y="757.9" width="61" height="24.65" shape-rendering="crispEdges"/><rect fill="#111827" x="317.2" y="757.9" width="36.6" height="24.65" shape-rendering="crispEdges"/><rect fill="#111827" x="353.8" y="757.9" width="97.6" height="24.65" shape-rendering="crispEdges"/><rect fill="#111827" x="451.4" y="757.9" width="36.6" height="24.65" shape-rendering="crispEdges"/><rect fill="#111827" x="488" y="757.9" width="109.8" height="24.65" shape-rendering="crispEdges"/><rect fill="#111827" x="597.8" y="757.9" width="36.6" height="24.65" shape-rendering="crispEdges"/><rect fill="#111827" x="634.4" y="757.9" width="85.4" height="24.65" shape-rendering="crispEdges"/><rect fill="#111827" x="719.8" y="757.9" width="36.6" height="24.65" shape-rendering="crispEdges"/><rect fill="#111827" x="756.4" y="757.9" width="61" height="24.65" shape-rendering="crispEdges"/><rect fill="#111827" x="817.4" y="757.9" width="378.2" height="24.65" shape-rendering="crispEdges"/><rect fill="#111827" x="1195.6" y="757.9" width="12.2" height="24.65" shape-rendering="crispEdges"/><rect fill="#111827" x="1207.8" y="757.9" width="24.4" height="24.65" shape-rendering="crispEdges"/><rect fill="#111827" x="1232.2" y="757.9" width="97.6" height="24.65" shape-rendering="crispEdges"/><rect fill="#111827" x="1329.8" y="757.9" width="12.2" height="24.65" shape-rendering="crispEdges"/>
    <g class="terminal-2382349025-matrix">
    <text class="terminal-2382349025-r2" x="36.6" y="20" textLength="12.2" clip-path="url(#terminal-2382349025-line-0)">⭘</text><text class="terminal-2382349025-r2" x="463.6" y="20" textLength="61" clip-path="url(#terminal-2382349025-line-0)">jaull</text><text class="terminal-2382349025-r3" x="524.6" y="20" textLength="36.6" clip-path="url(#terminal-2382349025-line-0)">&#160;—&#160;</text><text class="terminal-2382349025-r3" x="561.2" y="20" textLength="280.6" clip-path="url(#terminal-2382349025-line-0)">Interactive&#160;terminal&#160;UI</text><text class="terminal-2382349025-r1" x="1342" y="20" textLength="12.2" clip-path="url(#terminal-2382349025-line-0)">
</text><text class="terminal-2382349025-r1" x="1342" y="44.4" textLength="12.2" clip-path="url(#terminal-2382349025-line-1)">
</text><text class="terminal-2382349025-r4" x="0" y="68.8" textLength="1342" clip-path="url(#terminal-2382349025-line-2)">──────────────────────────────────────────────────────────────────────────────────────────────────────────────</text><text class="terminal-2382349025-r1" x="1342" y="68.8" textLength="12.2" clip-path="url(#terminal-2382349025-line-2)">
</text><text class="terminal-2382349025-r4" x="0" y="93.2" textLength="12.2" clip-path="url(#terminal-2382349025-line-3)">╭</text><text class="terminal-2382349025-r4" x="12.2" y="93.2" textLength="1317.6" clip-path="url(#terminal-2382349025-line-3)">────────────────────────────────────────────────────────────────────────────────────────────────────────────</text><text class="terminal-2382349025-r4" x="1329.8" y="93.2" textLength="12.2" clip-path="url(#terminal-2382349025-line-3)">╮</text><text class="terminal-2382349025-r1" x="1342" y="93.2" textLength="12.2" clip-path="url(#terminal-2382349025-line-3)">
</text><text class="terminal-2382349025-r4" x="0" y="117.6" textLength="12.2" clip-path="url(#terminal-2382349025-line-4)">│</text><text class="terminal-2382349025-r4" x="1329.8" y="117.6" textLength="12.2" clip-path="url(#terminal-2382349025-line-4)">│</text><text class="terminal-2382349025-r1" x="1342" y="117.6" textLength="12.2" clip-path="url(#terminal-2382349025-line-4)">
</text><text class="terminal-2382349025-r4" x="0" y="142" textLength="12.2" clip-path="url(#terminal-2382349025-line-5)">│</text><text class="terminal-2382349025-r5" x="36.6" y="142" textLength="256.2" clip-path="url(#terminal-2382349025-line-5)">Analyzing&#160;your&#160;system</text><text class="terminal-2382349025-r4" x="1329.8" y="142" textLength="12.2" clip-path="url(#terminal-2382349025-line-5)">│</text><text class="terminal-2382349025-r1" x="1342" y="142" textLength="12.2" clip-path="url(#terminal-2382349025-line-5)">
</text><text class="terminal-2382349025-r4" x="0" y="166.4" textLength="12.2" clip-path="url(#terminal-2382349025-line-6)">│</text><text class="terminal-2382349025-r6" x="36.6" y="166.4" textLength="622.2" clip-path="url(#terminal-2382349025-line-6)">Reading&#160;the&#160;hardware&#160;available&#160;for&#160;local&#160;inference.</text><text class="terminal-2382349025-r4" x="1329.8" y="166.4" textLength="12.2" clip-path="url(#terminal-2382349025-line-6)">│</text><text class="terminal-2382349025-r1" x="1342" y="166.4" textLength="12.2" clip-path="url(#terminal-2382349025-line-6)">
</text><text class="terminal-2382349025-r4" x="0" y="190.8" textLength="12.2" clip-path="url(#terminal-2382349025-line-7)">│</text><text class="terminal-2382349025-r4" x="1329.8" y="190.8" textLength="12.2" clip-path="url(#terminal-2382349025-line-7)">│</text><text class="terminal-2382349025-r1" x="1342" y="190.8" textLength="12.2" clip-path="url(#terminal-2382349025-line-7)">
</text><text class="terminal-2382349025-r4" x="0" y="215.2" textLength="12.2" clip-path="url(#terminal-2382349025-line-8)">│</text><text class="terminal-2382349025-r7" x="36.6" y="215.2" textLength="97.6" clip-path="url(#terminal-2382349025-line-8)">Hardware</text><text class="terminal-2382349025-r6" x="134.2" y="215.2" textLength="61" clip-path="url(#terminal-2382349025-line-8)">&#160;&#160;&gt;&#160;&#160;</text><text class="terminal-2382349025-r8" x="195.2" y="215.2" textLength="122" clip-path="url(#terminal-2382349025-line-8)">Your&#160;needs</text><text class="terminal-2382349025-r6" x="317.2" y="215.2" textLength="61" clip-path="url(#terminal-2382349025-line-8)">&#160;&#160;&gt;&#160;&#160;</text><text class="terminal-2382349025-r8" x="378.2" y="215.2" textLength="73.2" clip-path="url(#terminal-2382349025-line-8)">Search</text><text class="terminal-2382349025-r6" x="451.4" y="215.2" textLength="61" clip-path="url(#terminal-2382349025-line-8)">&#160;&#160;&gt;&#160;&#160;</text><text class="terminal-2382349025-r8" x="512.4" y="215.2" textLength="85.4" clip-path="url(#terminal-2382349025-line-8)">Results</text><text class="terminal-2382349025-r4" x="1329.8" y="215.2" textLength="12.2" clip-path="url(#terminal-2382349025-line-8)">│</text><text class="terminal-2382349025-r1" x="1342" y="215.2" textLength="12.2" clip-path="url(#terminal-2382349025-line-8)">
</text><text class="terminal-2382349025-r4" x="0" y="239.6" textLength="12.2" clip-path="url(#terminal-2382349025-line-9)">│</text><text class="terminal-2382349025-r4" x="1329.8" y="239.6" textLength="12.2" clip-path="url(#terminal-2382349025-line-9)">│</text><text class="terminal-2382349025-r1" x="1342" y="239.6" textLength="12.2" clip-path="url(#terminal-2382349025-line-9)">
</text><text class="terminal-2382349025-r4" x="0" y="264" textLength="12.2" clip-path="url(#terminal-2382349025-line-10)">╰</text><text class="terminal-2382349025-r4" x="12.2" y="264" textLength="1317.6" clip-path="url(#terminal-2382349025-line-10)">────────────────────────────────────────────────────────────────────────────────────────────────────────────</text><text class="terminal-2382349025-r4" x="1329.8" y="264" textLength="12.2" clip-path="url(#terminal-2382349025-line-10)">╯</text><text class="terminal-2382349025-r1" x="1342" y="264" textLength="12.2" clip-path="url(#terminal-2382349025-line-10)">
</text><text class="terminal-2382349025-r1" x="1342" y="288.4" textLength="12.2" clip-path="url(#terminal-2382349025-line-11)">
</text><text class="terminal-2382349025-r4" x="0" y="312.8" textLength="12.2" clip-path="url(#terminal-2382349025-line-12)">╭</text><text class="terminal-2382349025-r4" x="12.2" y="312.8" textLength="1317.6" clip-path="url(#terminal-2382349025-line-12)">────────────────────────────────────────────────────────────────────────────────────────────────────────────</text><text class="terminal-2382349025-r4" x="1329.8" y="312.8" textLength="12.2" clip-path="url(#terminal-2382349025-line-12)">╮</text><text class="terminal-2382349025-r1" x="1342" y="312.8" textLength="12.2" clip-path="url(#terminal-2382349025-line-12)">
</text><text class="terminal-2382349025-r4" x="0" y="337.2" textLength="12.2" clip-path="url(#terminal-2382349025-line-13)">│</text><text class="terminal-2382349025-r4" x="1329.8" y="337.2" textLength="12.2" clip-path="url(#terminal-2382349025-line-13)">│</text><text class="terminal-2382349025-r1" x="1342" y="337.2" textLength="12.2" clip-path="url(#terminal-2382349025-line-13)">
</text><text class="terminal-2382349025-r4" x="0" y="361.6" textLength="12.2" clip-path="url(#terminal-2382349025-line-14)">│</text><text class="terminal-2382349025-r5" x="36.6" y="361.6" textLength="207.4" clip-path="url(#terminal-2382349025-line-14)">Detected&#160;hardware</text><text class="terminal-2382349025-r4" x="1329.8" y="361.6" textLength="12.2" clip-path="url(#terminal-2382349025-line-14)">│</text><text class="terminal-2382349025-r1" x="1342" y="361.6" textLength="12.2" clip-path="url(#terminal-2382349025-line-14)">
</text><text class="terminal-2382349025-r4" x="0" y="386" textLength="12.2" clip-path="url(#terminal-2382349025-line-15)">│</text><text class="terminal-2382349025-r4" x="1329.8" y="386" textLength="12.2" clip-path="url(#terminal-2382349025-line-15)">│</text><text class="terminal-2382349025-r1" x="1342" y="386" textLength="12.2" clip-path="url(#terminal-2382349025-line-15)">
</text><text class="terminal-2382349025-r4" x="0" y="410.4" textLength="12.2" clip-path="url(#terminal-2382349025-line-16)">│</text><text class="terminal-2382349025-r2" x="36.6" y="410.4" textLength="122" clip-path="url(#terminal-2382349025-line-16)">CPU&#160;&#160;&#160;&#160;&#160;&#160;&#160;</text><text class="terminal-2382349025-r9" x="158.6" y="410.4" textLength="207.4" clip-path="url(#terminal-2382349025-line-16)">&#160;AMD&#160;Ryzen&#160;5&#160;3600</text><text class="terminal-2382349025-r4" x="1329.8" y="410.4" textLength="12.2" clip-path="url(#terminal-2382349025-line-16)">│</text><text class="terminal-2382349025-r1" x="1342" y="410.4" textLength="12.2" clip-path="url(#terminal-2382349025-line-16)">
</text><text class="terminal-2382349025-r4" x="0" y="434.8" textLength="12.2" clip-path="url(#terminal-2382349025-line-17)">│</text><text class="terminal-2382349025-r2" x="36.6" y="434.8" textLength="122" clip-path="url(#terminal-2382349025-line-17)">RAM&#160;&#160;&#160;&#160;&#160;&#160;&#160;</text><text class="terminal-2382349025-r9" x="158.6" y="434.8" textLength="109.8" clip-path="url(#terminal-2382349025-line-17)">&#160;32.0&#160;GiB</text><text class="terminal-2382349025-r4" x="1329.8" y="434.8" textLength="12.2" clip-path="url(#terminal-2382349025-line-17)">│</text><text class="terminal-2382349025-r1" x="1342" y="434.8" textLength="12.2" clip-path="url(#terminal-2382349025-line-17)">
</text><text class="terminal-2382349025-r4" x="0" y="459.2" textLength="12.2" clip-path="url(#terminal-2382349025-line-18)">│</text><text class="terminal-2382349025-r2" x="36.6" y="459.2" textLength="122" clip-path="url(#terminal-2382349025-line-18)">GPU&#160;&#160;&#160;&#160;&#160;&#160;&#160;</text><text class="terminal-2382349025-r9" x="158.6" y="459.2" textLength="195.2" clip-path="url(#terminal-2382349025-line-18)">&#160;NVIDIA&#160;RTX&#160;4070</text><text class="terminal-2382349025-r4" x="1329.8" y="459.2" textLength="12.2" clip-path="url(#terminal-2382349025-line-18)">│</text><text class="terminal-2382349025-r1" x="1342" y="459.2" textLength="12.2" clip-path="url(#terminal-2382349025-line-18)">
</text><text class="terminal-2382349025-r4" x="0" y="483.6" textLength="12.2" clip-path="url(#terminal-2382349025-line-19)">│</text><text class="terminal-2382349025-r2" x="36.6" y="483.6" textLength="122" clip-path="url(#terminal-2382349025-line-19)">VRAM&#160;&#160;&#160;&#160;&#160;&#160;</text><text class="terminal-2382349025-r9" x="158.6" y="483.6" textLength="109.8" clip-path="url(#terminal-2382349025-line-19)">&#160;12.0&#160;GiB</text><text class="terminal-2382349025-r4" x="1329.8" y="483.6" textLength="12.2" clip-path="url(#terminal-2382349025-line-19)">│</text><text class="terminal-2382349025-r1" x="1342" y="483.6" textLength="12.2" clip-path="url(#terminal-2382349025-line-19)">
</text><text class="terminal-2382349025-r4" x="0" y="508" textLength="12.2" clip-path="url(#terminal-2382349025-line-20)">│</text><text class="terminal-2382349025-r2" x="36.6" y="508" textLength="122" clip-path="url(#terminal-2382349025-line-20)">Platform&#160;&#160;</text><text class="terminal-2382349025-r9" x="158.6" y="508" textLength="231.8" clip-path="url(#terminal-2382349025-line-20)">&#160;Linux&#160;6.8&#160;(x86_64)</text><text class="terminal-2382349025-r4" x="1329.8" y="508" textLength="12.2" clip-path="url(#terminal-2382349025-line-20)">│</text><text class="terminal-2382349025-r1" x="1342" y="508" textLength="12.2" clip-path="url(#terminal-2382349025-line-20)">
</text><text class="terminal-2382349025-r4" x="0" y="532.4" textLength="12.2" clip-path="url(#terminal-2382349025-line-21)">│</text><text class="terminal-2382349025-r4" x="1329.8" y="532.4" textLength="12.2" clip-path="url(#terminal-2382349025-line-21)">│</text><text class="terminal-2382349025-r1" x="1342" y="532.4" textLength="12.2" clip-path="url(#terminal-2382349025-line-21)">
</text><text class="terminal-2382349025-r4" x="0" y="556.8" textLength="12.2" clip-path="url(#terminal-2382349025-line-22)">╰</text><text class="terminal-2382349025-r4" x="12.2" y="556.8" textLength="1317.6" clip-path="url(#terminal-2382349025-line-22)">────────────────────────────────────────────────────────────────────────────────────────────────────────────</text><text class="terminal-2382349025-r4" x="1329.8" y="556.8" textLength="12.2" clip-path="url(#terminal-2382349025-line-22)">╯</text><text class="terminal-2382349025-r1" x="1342" y="556.8" textLength="12.2" clip-path="url(#terminal-2382349025-line-22)">
</text><text class="terminal-2382349025-r1" x="1342" y="581.2" textLength="12.2" clip-path="url(#terminal-2382349025-line-23)">
</text><text class="terminal-2382349025-r1" x="1342" y="605.6" textLength="12.2" clip-path="url(#terminal-2382349025-line-24)">
</text><text class="terminal-2382349025-r1" x="1342" y="630" textLength="12.2" clip-path="url(#terminal-2382349025-line-25)">
</text><text class="terminal-2382349025-r1" x="1342" y="654.4" textLength="12.2" clip-path="url(#terminal-2382349025-line-26)">
</text><text class="terminal-2382349025-r11" x="36.6" y="678.8" textLength="122" clip-path="url(#terminal-2382349025-line-27)">&#160;Continue&#160;</text><text class="terminal-2382349025-r1" x="1342" y="678.8" textLength="12.2" clip-path="url(#terminal-2382349025-line-27)">
</text><text class="terminal-2382349025-r1" x="1342" y="703.2" textLength="12.2" clip-path="url(#terminal-2382349025-line-28)">
</text><text class="terminal-2382349025-r1" x="1342" y="727.6" textLength="12.2" clip-path="url(#terminal-2382349025-line-29)">
</text><text class="terminal-2382349025-r1" x="1342" y="752" textLength="12.2" clip-path="url(#terminal-2382349025-line-30)">
</text><text class="terminal-2382349025-r12" x="0" y="776.4" textLength="61" clip-path="url(#terminal-2382349025-line-31)">&#160;esc&#160;</text><text class="terminal-2382349025-r13" x="61" y="776.4" textLength="61" clip-path="url(#terminal-2382349025-line-31)">Back&#160;</text><text class="terminal-2382349025-r12" x="122" y="776.4" textLength="36.6" clip-path="url(#terminal-2382349025-line-31)">&#160;q&#160;</text><text class="terminal-2382349025-r13" x="158.6" y="776.4" textLength="61" clip-path="url(#terminal-2382349025-line-31)">Quit&#160;</text><text class="terminal-2382349025-r12" x="219.6" y="776.4" textLength="36.6" clip-path="url(#terminal-2382349025-line-31)">&#160;s&#160;</text><text class="terminal-2382349025-r13" x="256.2" y="776.4" textLength="61" clip-path="url(#terminal-2382349025-line-31)">Scan&#160;</text><text class="terminal-2382349025-r12" x="317.2" y="776.4" textLength="36.6" clip-path="url(#terminal-2382349025-line-31)">&#160;i&#160;</text><text class="terminal-2382349025-r13" x="353.8" y="776.4" textLength="97.6" clip-path="url(#terminal-2382349025-line-31)">Inspect&#160;</text><text class="terminal-2382349025-r12" x="451.4" y="776.4" textLength="36.6" clip-path="url(#terminal-2382349025-line-31)">&#160;e&#160;</text><text class="terminal-2382349025-r13" x="488" y="776.4" textLength="109.8" clip-path="url(#terminal-2382349025-line-31)">Estimate&#160;</text><text class="terminal-2382349025-r12" x="597.8" y="776.4" textLength="36.6" clip-path="url(#terminal-2382349025-line-31)">&#160;d&#160;</text><text class="terminal-2382349025-r13" x="634.4" y="776.4" textLength="85.4" clip-path="url(#terminal-2382349025-line-31)">Doctor&#160;</text><text class="terminal-2382349025-r12" x="719.8" y="776.4" textLength="36.6" clip-path="url(#terminal-2382349025-line-31)">&#160;h&#160;</text><text class="terminal-2382349025-r13" x="756.4" y="776.4" textLength="61" clip-path="url(#terminal-2382349025-line-31)">Home&#160;</text><text class="terminal-2382349025-r14" x="1195.6" y="776.4" textLength="12.2" clip-path="url(#terminal-2382349025-line-31)">▏</text><text class="terminal-2382349025-r12" x="1207.8" y="776.4" textLength="24.4" clip-path="url(#terminal-2382349025-line-31)">^p</text><text class="terminal-2382349025-r13" x="1232.2" y="776.4" textLength="97.6" clip-path="url(#terminal-2382349025-line-31)">&#160;palette</text>
    </g>
    </g>
</svg>
