<svg class="rich-terminal" viewBox="0 0 1360 830.8" xmlns="http://www.w3.org/2000/svg">
    <!-- Generated with Rich https://www.textualize.io -->
    <style>

    @font-face {
        font-family: "Fira Code";
        src: local("FiraCode-Regular"),
                url("https://cdnjs.cloudflare.com/ajax/libs/firacode/6.2.0/woff2/FiraCode-Regular.woff2") format("woff2"),
                url("https://cdnjs.cloudflare.com/ajax/libs/firacode/6.2.0/woff/FiraCode-Regular.woff") format("woff");
        font-style: normal;
        font-weight: 400;
    }
    @font-face {
        font-family: "Fira Code";
        src: local("FiraCode-Bold"),
                url("https://cdnjs.cloudflare.com/ajax/libs/firacode/6.2.0/woff2/FiraCode-Bold.woff2") format("woff2"),
                url("https://cdnjs.cloudflare.com/ajax/libs/firacode/6.2.0/woff/FiraCode-Bold.woff") format("woff");
        font-style: bold;
        font-weight: 700;
    }

    .terminal-242496907-matrix {
        font-family: Fira Code, monospace;
        font-size: 20px;
        line-height: 24.4px;
        font-variant-east-asian: full-width;
    }

    .terminal-242496907-title {
        font-size: 18px;
        font-weight: bold;
        font-family: arial;
    }

    .terminal-242496907-r1 { fill: #00ff00 }
.terminal-242496907-r2 { fill: #c5c8c6 }
.terminal-242496907-r3 { fill: #d8e6f0;font-weight: bold }
.terminal-242496907-r4 { fill: #8fa8bd }
.terminal-242496907-r5 { fill: #1b2735 }
.terminal-242496907-r6 { fill: #121212 }
.terminal-242496907-r7 { fill: #747a82 }
.terminal-242496907-r8 { fill: #d8e6f0 }
.terminal-242496907-r9 { fill: #00e5ff }
.terminal-242496907-r10 { fill: #04121a;font-weight: bold }
.terminal-242496907-r11 { fill: #ffa62b;font-weight: bold }
.terminal-242496907-r12 { fill: #e0e0e0 }
.terminal-242496907-r13 { fill: #343940 }
    </style>

    <defs>
    <clipPath id="terminal-242496907-clip-terminal">
      <rect x="0" y="0" width="1341.0" height="779.8" />
    </clipPath>
    <clipPath id="terminal-242496907-line-0">
    <rect x="0" y="1.5" width="1342" height="24.65"/>
            </clipPath>
<clipPath id="terminal-242496907-line-1">
    <rect x="0" y="25.9" width="1342" height="24.65"/>
            </clipPath>
<clipPath id="terminal-242496907-line-2">
    <rect x="0" y="50.3" width="1342" height="24.65"/>
            </clipPath>
<clipPath id="terminal-242496907-line-3">
    <rect x="0" y="74.7" width="1342" height="24.65"/>
            </clipPath>
<clipPath id="terminal-242496907-line-4">
    <rect x="0" y="99.1" width="1342" height="24.65"/>
            </clipPath>
<clipPath id="terminal-242496907-line-5">
    <rect x="0" y="123.5" width="1342" height="24.65"/>
            </clipPath>
<clipPath id="terminal-242496907-line-6">
    <rect x="0" y="147.9" width="1342" height="24.65"/>
            </clipPath>
<clipPath id="terminal-242496907-line-7">
    <rect x="0" y="172.3" width="1342" height="24.65"/>
            </clipPath>
<clipPath id="terminal-242496907-line-8">
    <rect x="0" y="196.7" width="1342" height="24.65"/>
            </clipPath>
<clipPath id="terminal-242496907-line-9">
    <rect x="0" y="221.1" width="1342" height="24.65"/>
            </clipPath>
<clipPath id="terminal-242496907-line-10">
    <rect x="0" y="245.5" width="1342" height="24.65"/>
            </clipPath>
<clipPath id="terminal-242496907-line-11">
    <rect x="0" y="269.9" width="1342" height="24.65"/>
            </clipPath>
<clipPath id="terminal-242496907-line-12">
    <rect x="0" y="294.3" width="1342" height="24.65"/>
            </clipPath>
<clipPath id="terminal-242496907-line-13">
    <rect x="0" y="318.7" width="1342" height="24.65"/>
            </clipPath>
<clipPath id="terminal-242496907-line-14">
    <rect x="0" y="343.1" width="1342" height="24.65"/>
            </clipPath>
<clipPath id="terminal-242496907-line-15">
    <rect x="0" y="367.5" width="1342" height="24.65"/>
            </clipPath>
<clipPath id="terminal-242496907-line-16">
    <rect x="0" y="391.9" width="1342" height="24.65"/>
            </clipPath>
<clipPath id="terminal-242496907-line-17">
    <rect x="0" y="416.3" width="1342" height="24.65"/>
            </clipPath>
<clipPath id="terminal-242496907-line-18">
    <rect x="0" y="440.7" width="1342" height="24.65"/>
            </clipPath>
<clipPath id="terminal-242496907-line-19">
    <rect x="0" y="465.1" width="1342" height="24.65"/>
            </clipPath>
<clipPath id="terminal-242496907-line-20">
    <rect x="0" y="489.5" width="1342" height="24.65"/>
            </clipPath>
<clipPath id="terminal-242496907-line-21">
    <rect x="0" y="513.9" width="1342" height="24.65"/>
            </clipPath>
<clipPath id="terminal-242496907-line-22">
    <rect x="0" y="538.3" width="1342" height="24.65"/>
            </clipPath>
<clipPath id="terminal-242496907-line-23">
    <rect x="0" y="562.7" width="1342" height="24.65"/>
            </clipPath>
<clipPath id="terminal-242496907-line-24">
    <rect x="0" y="587.1" width="1342" height="24.65"/>
            </clipPath>
<clipPath id="terminal-242496907-line-25">
    <rect x="0" y="611.5" width="1342" height="24.65"/>
            </clipPath>
<clipPath id="terminal-242496907-line-26">
    <rect x="0" y="635.9" width="1342" height="24.65"/>
            </clipPath>
<clipPath id="terminal-242496907-line-27">
    <rect x="0" y="660.3" width="1342" height="24.65"/>
            </clipPath>
<clipPath id="terminal-242496907-line-28">
    <rect x="0" y="684.7" width="1342" height="24.65"/>
            </clipPath>
<clipPath id="terminal-242496907-line-29">
    <rect x="0" y="709.1" width="1342" height="24.65"/>
            </clipPath>
<clipPath id="terminal-242496907-line-30">
    <rect x="0" y="733.5" width="1342" height="24.65"/>
            </clipPath>
    </defs>

    <rect fill="#292929" stroke="rgba(255,255,255,0.35)" stroke-width="1" x="1" y="1" width="1358" height="828.8" rx="8"/><text class="terminal-242496907-title" fill="#c5c8c6" text-anchor="middle" x="679" y="27">jaull</text>
            <g transform="translate(26,22)">
            <circle cx="0" cy="0" r="7" fill="#ff5f57"/>
            <circle cx="22" cy="0" r="7" fill="#febc2e"/>
            <circle cx="44" cy="0" r="7" fill="#28c840"/>
            </g>
        
    <g transform="translate(9, 41)" clip-path="url(#terminal-242496907-clip-terminal)">
    <rect fill="#0a1018" x="0" y="1.5" width="1342" height="24.65" shape-rendering="crispEdges"/><rect fill="#070a10" x="0" y="25.9" width="24.4" height="24.65" shape-rendering="crispEdges"/><rect fill="#070a10" x="24.4" y="25.9" width="256.2" height="24.65" shape-rendering="crispEdges"/><rect fill="#070a10" x="280.6" y="25.9" width="1037" height="24.65" shape-rendering="crispEdges"/><rect fill="#070a10" x="1317.6" y="25.9" width="24.4" height="24.65" shape-rendering="crispEdges"/><rect fill="#070a10" x="0" y="50.3" width="24.4" height="24.65" shape-rendering="crispEdges"/><rect fill="#070a10" x="24.4" y="50.3" width="780.8" height="24.65" shape-rendering="crispEdges"/><rect fill="#070a10" x="805.2" y="50.3" width="512.4" height="24.65" shape-rendering="crispEdges"/><rect fill="#070a10" x="1317.6" y="50.3" width="24.4" height="24.65" shape-rendering="crispEdges"/><rect fill="#070a10" x="0" y="74.7" width="1342" height="24.65" shape-rendering="crispEdges"/><rect fill="#070a10" x="0" y="99.1" width="1342" height="24.65" shape-rendering="crispEdges"/><rect fill="#070a10" x="0" y="123.5" width="1342" height="24.65" shape-rendering="crispEdges"/><rect fill="#070a10" x="0" y="147.9" width="24.4" height="24.65" shape-rendering="crispEdges"/><rect fill="#070a10" x="24.4" y="147.9" width="97.6" height="24.65" shape-rendering="crispEdges"/><rect fill="#070a10" x="122" y="147.9" width="1195.6" height="24.65" shape-rendering="crispEdges"/><rect fill="#070a10" x="1317.6" y="147.9" width="24.4" height="24.65" shape-rendering="crispEdges"/><rect fill="#070a10" x="0" y="172.3" width="24.4" height="24.65" shape-rendering="crispEdges"/><rect fill="#070a10" x="24.4" y="172.3" width="1293.2" height="24.65" shape-rendering="crispEdges"/><rect fill="#070a10" x="1317.6" y="172.3" width="24.4" height="24.65" shape-rendering="crispEdges"/><rect fill="#070a10" x="0" y="196.7" width="24.4" height="24.65" shape-rendering="crispEdges"/><rect fill="#202936" x="24.4" y="196.7" width="12.2" height="24.65" shape-rendering="crispEdges"/><rect fill="#e0e0e0" x="36.6" y="196.7" width="12.2" height="24.65" shape-rendering="crispEdges"/><rect fill="#202936" x="48.8" y="196.7" width="378.2" height="24.65" shape-rendering="crispEdges"/><rect fill="#202936" x="427" y="196.7" width="878.4" height="24.65" shape-rendering="crispEdges"/><rect fill="#202936" x="1305.4" y="196.7" width="12.2" height="24.65" shape-rendering="crispEdges"/><rect fill="#070a10" x="1317.6" y="196.7" width="24.4" height="24.65" shape-rendering="crispEdges"/><rect fill="#070a10" x="0" y="221.1" width="24.4" height="24.65" shape-rendering="crispEdges"/><rect fill="#202936" x="24.4" y="221.1" width="1293.2" height="24.65" shape-rendering="crispEdges"/><rect fill="#070a10" x="1317.6" y="221.1" width="24.4" height="24.65" shape-rendering="crispEdges"/><rect fill="#070a10" x="0" y="245.5" width="24.4" height="24.65" shape-rendering="crispEdges"/><rect fill="#00e5ff" x="24.4" y="245.5" width="36.6" height="24.65" shape-rendering="crispEdges"/><rect fill="#00e5ff" x="61" y="245.5" width="97.6" height="24.65" shape-rendering="crispEdges"/><rect fill="#00e5ff" x="158.6" y="245.5" width="36.6" height="24.65" shape-rendering="crispEdges"/><rect fill="#070a10" x="195.2" y="245.5" width="1122.4" height="24.65" shape-rendering="crispEdges"/><rect fill="#070a10" x="1317.6" y="245.5" width="24.4" height="24.65" shape-rendering="crispEdges"/><rect fill="#070a10" x="0" y="269.9" width="1342" height="24.65" shape-rendering="crispEdges"/><rect fill="#070a10" x="0" y="294.3" width="24.4" height="24.65" shape-rendering="crispEdges"/><rect fill="#070a10" x="24.4" y="294.3" width="1293.2" height="24.65" shape-rendering="crispEdges"/><rect fill="#070a10" x="1317.6" y="294.3" width="24.4" height="24.65" shape-rendering="crispEdges"/><rect fill="#070a10" x="0" y="318.7" width="24.4" height="24.65" shape-rendering="crispEdges"/><rect fill="#070a10" x="24.4" y="318.7" width="1293.2" height="24.65" shape-rendering="crispEdges"/><rect fill="#070a10" x="1317.6" y="318.7" width="24.4" height="24.65" shape-rendering="crispEdges"/><rect fill="#070a10" x="0" y="343.1" width="24.4" height="24.65" shape-rendering="crispEdges"/><rect fill="#070a10" x="24.4" y="343.1" width="1293.2" height="24.65" shape-rendering="crispEdges"/><rect fill="#070a10" x="1317.6" y="343.1" width="24.4" height="24.65" shape-rendering="crispEdges"/><rect fill="#070a10" x="0" y="367.5" width="24.4" height="24.65" shape-rendering="crispEdges"/><rect fill="#070a10" x="24.4" y="367.5" width="1293.2" height="24.65" shape-rendering="crispEdges"/><rect fill="#070a10" x="1317.6" y="367.5" width="24.4" height="24.65" shape-rendering="crispEdges"/><rect fill="#070a10" x="0" y="391.9" width="24.4" height="24.65" shape-rendering="crispEdges"/><rect fill="#070a10" x="24.4" y="391.9" width="1293.2" height="24.65" shape-rendering="crispEdges"/><rect fill="#070a10" x="1317.6" y="391.9" width="24.4" height="24.65" shape-rendering="crispEdges"/><rect fill="#070a10" x="0" y="416.3" width="24.4" height="24.65" shape-rendering="crispEdges"/><rect fill="#070a10" x="24.4" y="416.3" width="1293.2" height="24.65" shape-rendering="crispEdges"/><rect fill="#070a10" x="1317.6" y="416.3" width="24.4" height="24.65" shape-rendering="crispEdges"/><rect fill="#070a10" x="0" y="440.7" width="24.4" height="24.65" shape-rendering="crispEdges"/><rect fill="#070a10" x="24.4" y="440.7" width="1293.2" height="24.65" shape-rendering="crispEdges"/><rect fill="#070a10" x="1317.6" y="440.7" width="24.4" height="24.65" shape-rendering="crispEdges"/><rect fill="#070a10" x="0" y="465.1" width="24.4" height="24.65" shape-rendering="crispEdges"/><rect fill="#070a10" x="24.4" y="465.1" width="1293.2" height="24.65" shape-rendering="crispEdges"/><rect fill="#070a10" x="1317.6" y="465.1" width="24.4" height="24.65" shape-rendering="crispEdges"/><rect fill="#070a10" x="0" y="489.5" width="24.4" height="24.65" shape-rendering="crispEdges"/><rect fill="#070a10" x="24.4" y="489.5" width="1293.2" height="24.65" shape-rendering="crispEdges"/><rect fill="#070a10" x="1317.6" y="489.5" width="24.4" height="24.65" shape-rendering="crispEdges"/><rect fill="#070a10" x="0" y="513.9" width="24.4" height="24.65" shape-rendering="crispEdges"/><rect fill="#070a10" x="24.4" y="513.9" width="1293.2" height="24.65" shape-rendering="crispEdges"/><rect fill="#070a10" x="1317.6" y="513.9" width="24.4" height="24.65" shape-rendering="crispEdges"/><rect fill="#070a10" x="0" y="538.3" width="24.4" height="24.65" shape-rendering="crispEdges"/><rect fill="#070a10" x="24.4" y="538.3" width="1293.2" height="24.65" shape-rendering="crispEdges"/><rect fill="#070a10" x="1317.6" y="538.3" width="24.4" height="24.65" shape-rendering="crispEdges"/><rect fill="#070a10" x="0" y="562.7" width="24.4" height="24.65" shape-rendering="crispEdges"/><rect fill="#070a10" x="24.4" y="562.7" width="1293.2" height="24.65" shape-rendering="crispEdges"/><rect fill="#070a10" x="1317.6" y="562.7" width="24.4" height="24.65" shape-rendering="crispEdges"/><rect fill="#070a10" x="0" y="587.1" width="24.4" height="24.65" shape-rendering="crispEdges"/><rect fill="#070a10" x="24.4" y="587.1" width="1293.2" height="24.65" shape-rendering="crispEdges"/><rect fill="#070a10" x="1317.6" y="587.1" width="24.4" height="24.65" shape-rendering="crispEdges"/><rect fill="#070a10" x="0" y="611.5" width="24.4" height="24.65" shape-rendering="crispEdges"/><rect fill="#070a10" x="24.4" y="611.5" width="1293.2" height="24.65" shape-rendering="crispEdges"/><rect fill="#070a10" x="1317.6" y="611.5" width="24.4" height="24.65" shape-rendering="crispEdges"/><rect fill="#070a10" x="0" y="635.9" width="24.4" height="24.65" shape-rendering="crispEdges"/><rect fill="#070a10" x="24.4" y="635.9" width="1293.2" height="24.65" shape-rendering="crispEdges"/><rect fill="#070a10" x="1317.6" y="635.9" width="24.4" height="24.65" shape-rendering="crispEdges"/><rect fill="#070a10" x="0" y="660.3" width="24.4" height="24.65" shape-rendering="crispEdges"/><rect fill="#070a10" x="24.4" y="660.3" width="1293.2" height="24.65" shape-rendering="crispEdges"/><rect fill="#070a10" x="1317.6" y="660.3" width="24.4" height="24.65" shape-rendering="crispEdges"/><rect fill="#070a10" x="0" y="684.7" width="24.4" height="24.65" shape-rendering="crispEdges"/><rect fill="#070a10" x="24.4" y="684.7" width="1293.2" height="24.65" shape-rendering="crispEdges"/><rect fill="#070a10" x="1317.6" y="684.7" width="24.4" height="24.65" shape-rendering="crispEdges"/><rect fill="#070a10" x="0" y="709.1" width="24.4" height="24.65" shape-rendering="crispEdges"/><rect fill="#070a10" x="24.4" y="709.1" width="1293.2" height="24.65" shape-rendering="crispEdges"/><rect fill="#070a10" x="1317.6" y="709.1" width="24.4" height="24.65" shape-rendering="crispEdges"/><rect fill="#070a10" x="0" y="733.5" width="24.4" height="24.65" shape-rendering="crispEdges"/><rect fill="#070a10" x="24.4" y="733.5" width="1293.2" height="24.65" shape-rendering="crispEdges"/><rect fill="#070a10" x="1317.6" y="733.5" width="24.4" height="24.65" shape-rendering="crispEdges"/><rect fill="#0a1018" x="0" y="757.9" width="61" height="24.65" shape-rendering="crispEdges"/><rect fill="#0a1018" x="61" y="757.9" width="61" height="24.65" shape-rendering="crispEdges"/><rect fill="#0a1018" x="122" y="757.9" width="1073.6" height="24.65" shape-rendering="crispEdges"/><rect fill="#0a1018" x="1195.6" y="757.9" width="12.2" height="24.65" shape-rendering="crispEdges"/><rect fill="#0a1018" x="1207.8" y="757.9" width="24.4" height="24.65" shape-rendering="crispEdges"/><rect fill="#0a1018" x="1232.2" y="757.9" width="97.6" height="24.65" shape-rendering="crispEdges"/><rect fill="#0a1018" x="1329.8" y="757.9" width="12.2" height="24.65" shape-rendering="crispEdges"/>
    <g class="terminal-242496907-matrix">
    <text class="terminal-242496907-r2" x="1342" y="20" textLength="12.2" clip-path="url(#terminal-242496907-line-0)">
</text><text class="terminal-242496907-r3" x="24.4" y="44.4" textLength="256.2" clip-path="url(#terminal-242496907-line-1)">Estimate&#160;model&#160;memory</text><text class="terminal-242496907-r2" x="1342" y="44.4" textLength="12.2" clip-path="url(#terminal-242496907-line-1)">
</text><text class="terminal-242496907-r4" x="24.4" y="68.8" textLength="780.8" clip-path="url(#terminal-242496907-line-2)">Guided&#160;flow&#160;—&#160;enter&#160;a&#160;model,&#160;pick&#160;options,&#160;get&#160;a&#160;full&#160;breakdown.</text><text class="terminal-242496907-r2" x="1342" y="68.8" textLength="12.2" clip-path="url(#terminal-242496907-line-2)">
</text><text class="terminal-242496907-r2" x="1342" y="93.2" textLength="12.2" clip-path="url(#terminal-242496907-line-3)">
</text><text class="terminal-242496907-r5" x="0" y="117.6" textLength="1342" clip-path="url(#terminal-242496907-line-4)">──────────────────────────────────────────────────────────────────────────────────────────────────────────────</text><text class="terminal-242496907-r2" x="1342" y="117.6" textLength="12.2" clip-path="url(#terminal-242496907-line-4)">
</text><text class="terminal-242496907-r2" x="1342" y="142" textLength="12.2" clip-path="url(#terminal-242496907-line-5)">
</text><text class="terminal-242496907-r3" x="24.4" y="166.4" textLength="97.6" clip-path="url(#terminal-242496907-line-6)">1.&#160;Model</text><text class="terminal-242496907-r2" x="1342" y="166.4" textLength="12.2" clip-path="url(#terminal-242496907-line-6)">
</text><text class="terminal-242496907-r2" x="1342" y="190.8" textLength="12.2" clip-path="url(#terminal-242496907-line-7)">
</text><text class="terminal-242496907-r6" x="36.6" y="215.2" textLength="12.2" clip-path="url(#terminal-242496907-line-8)">u</text><text class="terminal-242496907-r7" x="48.8" y="215.2" textLength="378.2" clip-path="url(#terminal-242496907-line-8)">ser/model&#160;or&#160;huggingface.co&#160;URL</text><text class="terminal-242496907-r2" x="1342" y="215.2" textLength="12.2" clip-path="url(#terminal-242496907-line-8)">
</text><text class="terminal-242496907-r9" x="24.4" y="239.6" textLength="1293.2" clip-path="url(#terminal-242496907-line-9)">━━━━━━━━━━━━━━━━━━━━━━━━━━━━━━━━━━━━━━━━━━━━━━━━━━━━━━━━━━━━━━━━━━━━━━━━━━━━━━━━━━━━━━━━━━━━━━━━━━━━━━━━━━</text><text class="terminal-242496907-r2" x="1342" y="239.6" textLength="12.2" clip-path="url(#terminal-242496907-line-9)">
</text><text class="terminal-242496907-r10" x="61" y="264" textLength="97.6" clip-path="url(#terminal-242496907-line-10)">&#160;Detect&#160;</text><text class="terminal-242496907-r2" x="1342" y="264" textLength="12.2" clip-path="url(#terminal-242496907-line-10)">
</text><text class="terminal-242496907-r2" x="1342" y="288.4" textLength="12.2" clip-path="url(#terminal-242496907-line-11)">
</text><text class="terminal-242496907-r2" x="1342" y="312.8" textLength="12.2" clip-path="url(#terminal-242496907-line-12)">
</text><text class="terminal-242496907-r2" x="1342" y="337.2" textLength="12.2" clip-path="url(#terminal-242496907-line-13)">
</text><text class="terminal-242496907-r2" x="1342" y="361.6" textLength="12.2" clip-path="url(#terminal-242496907-line-14)">
</text><text class="terminal-242496907-r2" x="1342" y="386" textLength="12.2" clip-path="url(#terminal-242496907-line-15)">
</text><text class="terminal-242496907-r2" x="1342" y="410.4" textLength="12.2" clip-path="url(#terminal-242496907-line-16)">
</text><text class="terminal-242496907-r2" x="1342" y="434.8" textLength="12.2" clip-path="url(#terminal-242496907-line-17)">
</text><text class="terminal-242496907-r2" x="1342" y="459.2" textLength="12.2" clip-path="url(#terminal-242496907-line-18)">
</text><text class="terminal-242496907-r2" x="1342" y="483.6" textLength="12.2" clip-path="url(#terminal-242496907-line-19)">
</text><text class="terminal-242496907-r2" x="1342" y="508" textLength="12.2" clip-path="url(#terminal-242496907-line-20)">
</text><text class="terminal-242496907-r2" x="1342" y="532.4" textLength="12.2" clip-path="url(#terminal-242496907-line-21)">
</text><text class="terminal-242496907-r2" x="1342" y="556.8" textLength="12.2" clip-path="url(#terminal-242496907-line-22)">
</text><text class="terminal-242496907-r2" x="1342" y="581.2" textLength="12.2" clip-path="url(#terminal-242496907-line-23)">
</text><text class="terminal-242496907-r2" x="1342" y="605.6" textLength="12.2" clip-path="url(#terminal-242496907-line-24)">
</text><text class="terminal-242496907-r2" x="1342" y="630" textLength="12.2" clip-path="url(#terminal-242496907-line-25)">
</text><text class="terminal-242496907-r2" x="1342" y="654.4" textLength="12.2" clip-path="url(#terminal-242496907-line-26)">
</text><text class="terminal-242496907-r2" x="1342" y="678.8" textLength="12.2" clip-path="url(#terminal-242496907-line-27)">
</text><text class="terminal-242496907-r2" x="1342" y="703.2" textLength="12.2" clip-path="url(#terminal-242496907-line-28)">
</text><text class="terminal-242496907-r2" x="1342" y="727.6" textLength="12.2" clip-path="url(#terminal-242496907-line-29)">
</text><text class="terminal-242496907-r2" x="1342" y="752" textLength="12.2" clip-path="url(#terminal-242496907-line-30)">
</text><text class="terminal-242496907-r11" x="0" y="776.4" textLength="61" clip-path="url(#terminal-242496907-line-31)">&#160;esc&#160;</text><text class="terminal-242496907-r12" x="61" y="776.4" textLength="61" clip-path="url(#terminal-242496907-line-31)">Back&#160;</text><text class="terminal-242496907-r13" x="1195.6" y="776.4" textLength="12.2" clip-path="url(#terminal-242496907-line-31)">▏</text><text class="terminal-242496907-r11" x="1207.8" y="776.4" textLength="24.4" clip-path="url(#terminal-242496907-line-31)">^p</text><text class="terminal-242496907-r12" x="1232.2" y="776.4" textLength="97.6" clip-path="url(#terminal-242496907-line-31)">&#160;palette</text>
    </g>
    </g>
</svg>
